<svg xmlns="http://www.w3.org/2000/svg" width="960" height="320" viewBox="0 0 960 320" role="img" aria-labelledby="title description">
<title id="title">KeyHog star history</title>
<desc id="description">KeyHog GitHub stars: 44 on 2026-05-27 to 105 on 2026-09-24</desc>
<defs>
  <linearGradient id="area" x1="0" y1="0" x2="0" y2="1"><stop offset="0" stop-color="#ffd60a" stop-opacity="0.34"/><stop offset="1" stop-color="#ffd60a" stop-opacity="0.03"/></linearGradient>
  <style>.bg{fill:#0d1017}.grid{stroke:#343844;stroke-width:1}.axis{fill:#aeb4c2;font:12px ui-monospace,SFMono-Regular,Consolas,monospace}.label{fill:#f5f7fa;font:600 15px system-ui,sans-serif}.value{fill:#ffd60a;font:700 27px system-ui,sans-serif}.line{fill:none;stroke:#ffd60a;stroke-width:3;stroke-linecap:round;stroke-linejoin:round}</style>
</defs>
<rect class="bg" width="960" height="320" rx="12"/>
<text x="68" y="34" class="label">Repository star history</text>
<text x="68" y="65" class="value">105 stars</text>
<text x="248" y="62" class="axis">+61 since 2026-05-27 · repository-owned history</text>
<line x1="68" y1="266.00" x2="932" y2="266.00" class="grid"/><text x="56" y="270.00" text-anchor="end" class="axis">0</text><line x1="68" y1="219.16" x2="932" y2="219.16" class="grid"/><text x="56" y="223.16" text-anchor="end" class="axis">28</text><line x1="68" y1="174.00" x2="932" y2="174.00" class="grid"/><text x="56" y="178.00" text-anchor="end" class="axis">55</text><line x1="68" y1="128.84" x2="932" y2="128.84" class="grid"/><text x="56" y="132.84" text-anchor="end" class="axis">82</text><line x1="68" y1="82.00" x2="932" y2="82.00" class="grid"/><text x="56" y="86.00" text-anchor="end" class="axis">110</text>
<path d="M 68,266 L 68.00,192.40 L 75.20,177.35 L 82.40,172.33 L 89.60,160.62 L 96.80,155.60 L 104.00,150.58 L 111.20,147.24 L 118.40,143.89 L 147.20,142.22 L 154.40,138.87 L 161.60,137.20 L 183.20,133.85 L 240.80,132.18 L 269.60,130.51 L 327.20,127.16 L 348.80,125.49 L 363.20,127.16 L 370.40,128.84 L 413.60,127.16 L 456.80,125.49 L 471.20,123.82 L 514.40,120.47 L 586.40,118.80 L 622.40,117.13 L 644.00,118.80 L 651.20,117.13 L 658.40,115.45 L 694.40,113.78 L 701.60,112.11 L 708.80,110.44 L 716.00,108.76 L 723.20,103.75 L 730.40,102.07 L 737.60,100.40 L 752.00,98.73 L 773.60,100.40 L 824.00,98.73 L 831.20,97.05 L 845.60,95.38 L 874.40,93.71 L 903.20,92.04 L 932.00,90.36 L 932,266 Z" fill="url(#area)"/>
<polyline points="68.00,192.40 75.20,177.35 82.40,172.33 89.60,160.62 96.80,155.60 104.00,150.58 111.20,147.24 118.40,143.89 147.20,142.22 154.40,138.87 161.60,137.20 183.20,133.85 240.80,132.18 269.60,130.51 327.20,127.16 348.80,125.49 363.20,127.16 370.40,128.84 413.60,127.16 456.80,125.49 471.20,123.82 514.40,120.47 586.40,118.80 622.40,117.13 644.00,118.80 651.20,117.13 658.40,115.45 694.40,113.78 701.60,112.11 708.80,110.44 716.00,108.76 723.20,103.75 730.40,102.07 737.60,100.40 752.00,98.73 773.60,100.40 824.00,98.73 831.20,97.05 845.60,95.38 874.40,93.71 903.20,92.04 932.00,90.36" class="line"/>
<circle cx="932.00" cy="90.36" r="5" fill="#ffd60a"/>
<text x="68.00" y="297" text-anchor="start" class="axis">2026-05-27</text><text x="514.40" y="297" text-anchor="middle" class="axis">2026-07-28</text><text x="932.00" y="297" text-anchor="end" class="axis">2026-09-24</text>
</svg>
