<svg xmlns="http://www.w3.org/2000/svg" width="960" height="320" viewBox="0 0 960 320" role="img" aria-labelledby="title description">
<title id="title">KeyHog star history</title>
<desc id="description">KeyHog GitHub stars: 44 on 2026-05-27 to 88 on 2026-08-07</desc>
<defs>
  <linearGradient id="area" x1="0" y1="0" x2="0" y2="1"><stop offset="0" stop-color="#ffd60a" stop-opacity="0.34"/><stop offset="1" stop-color="#ffd60a" stop-opacity="0.03"/></linearGradient>
  <style>.bg{fill:#0d1017}.grid{stroke:#343844;stroke-width:1}.axis{fill:#aeb4c2;font:12px ui-monospace,SFMono-Regular,Consolas,monospace}.label{fill:#f5f7fa;font:600 15px system-ui,sans-serif}.value{fill:#ffd60a;font:700 27px system-ui,sans-serif}.line{fill:none;stroke:#ffd60a;stroke-width:3;stroke-linecap:round;stroke-linejoin:round}</style>
</defs>
<rect class="bg" width="960" height="320" rx="12"/>
<text x="68" y="34" class="label">Repository star history</text>
<text x="68" y="65" class="value">88 stars</text>
<text x="248" y="62" class="axis">+44 since 2026-05-27 · repository-owned history</text>
<line x1="68" y1="266.00" x2="932" y2="266.00" class="grid"/><text x="56" y="270.00" text-anchor="end" class="axis">0</text><line x1="68" y1="221.02" x2="932" y2="221.02" class="grid"/><text x="56" y="225.02" text-anchor="end" class="axis">22</text><line x1="68" y1="174.00" x2="932" y2="174.00" class="grid"/><text x="56" y="178.00" text-anchor="end" class="axis">45</text><line x1="68" y1="126.98" x2="932" y2="126.98" class="grid"/><text x="56" y="130.98" text-anchor="end" class="axis">68</text><line x1="68" y1="82.00" x2="932" y2="82.00" class="grid"/><text x="56" y="86.00" text-anchor="end" class="axis">90</text>
<path d="M 68,266 L 68.00,176.04 L 80.00,157.64 L 92.00,151.51 L 104.00,137.20 L 116.00,131.07 L 128.00,124.93 L 140.00,120.84 L 152.00,116.76 L 200.00,114.71 L 212.00,110.62 L 224.00,108.58 L 260.00,104.49 L 356.00,102.44 L 404.00,100.40 L 500.00,96.31 L 536.00,94.27 L 560.00,96.31 L 572.00,98.36 L 644.00,96.31 L 716.00,94.27 L 740.00,92.22 L 812.00,88.13 L 932.00,86.09 L 932,266 Z" fill="url(#area)"/>
<polyline points="68.00,176.04 80.00,157.64 92.00,151.51 104.00,137.20 116.00,131.07 128.00,124.93 140.00,120.84 152.00,116.76 200.00,114.71 212.00,110.62 224.00,108.58 260.00,104.49 356.00,102.44 404.00,100.40 500.00,96.31 536.00,94.27 560.00,96.31 572.00,98.36 644.00,96.31 716.00,94.27 740.00,92.22 812.00,88.13 932.00,86.09" class="line"/>
<circle cx="932.00" cy="86.09" r="5" fill="#ffd60a"/>
<text x="68.00" y="297" text-anchor="start" class="axis">2026-05-27</text><text x="260.00" y="297" text-anchor="middle" class="axis">2026-06-12</text><text x="932.00" y="297" text-anchor="end" class="axis">2026-08-07</text>
</svg>
